<?xml version="1.0" encoding="UTF-8" standalone="no"?>
<!-- Created with Inkscape (http://www.inkscape.org/) -->

<svg
   xmlns:dc="http://purl.org/dc/elements/1.1/"
   xmlns:cc="http://creativecommons.org/ns#"
   xmlns:rdf="http://www.w3.org/1999/02/22-rdf-syntax-ns#"
   xmlns:svg="http://www.w3.org/2000/svg"
   xmlns="http://www.w3.org/2000/svg"
   xmlns:xlink="http://www.w3.org/1999/xlink"
   xmlns:sodipodi="http://sodipodi.sourceforge.net/DTD/sodipodi-0.dtd"
   xmlns:inkscape="http://www.inkscape.org/namespaces/inkscape"
   width="610"
   height="610"
   viewBox="0 0 610.00002 610.00002"
   id="svg2"
   version="1.1"
   inkscape:version="0.91 r13725"
   sodipodi:docname="pc.svg">
  <defs
     id="defs4">
    <linearGradient
       inkscape:collect="always"
       id="linearGradient4218">
      <stop
         style="stop-color:#b70000;stop-opacity:1;"
         offset="0"
         id="stop4220" />
      <stop
         style="stop-color:#b70000;stop-opacity:0;"
         offset="1"
         id="stop4222" />
    </linearGradient>
    <linearGradient
       inkscape:collect="always"
       id="linearGradient4210">
      <stop
         style="stop-color:#b70000;stop-opacity:1;"
         offset="0"
         id="stop4212" />
      <stop
         style="stop-color:#b70000;stop-opacity:0;"
         offset="1"
         id="stop4214" />
    </linearGradient>
    <linearGradient
       inkscape:collect="always"
       id="linearGradient4202">
      <stop
         style="stop-color:#009200;stop-opacity:1;"
         offset="0"
         id="stop4204" />
      <stop
         style="stop-color:#009200;stop-opacity:0;"
         offset="1"
         id="stop4206" />
    </linearGradient>
    <linearGradient
       inkscape:collect="always"
       id="linearGradient4194">
      <stop
         style="stop-color:#ff9c75;stop-opacity:1;"
         offset="0"
         id="stop4196" />
      <stop
         style="stop-color:#ff9c75;stop-opacity:0.72156864"
         offset="1"
         id="stop4198" />
    </linearGradient>
    <radialGradient
       inkscape:collect="always"
       xlink:href="#linearGradient4194"
       id="radialGradient4200"
       cx="53.113987"
       cy="511.50113"
       fx="53.113987"
       fy="511.50113"
       r="36.545128"
       gradientTransform="matrix(1.0945372,0.27363449,-0.28339588,1.1335827,151.82208,-82.000623)"
       gradientUnits="userSpaceOnUse" />
    <radialGradient
       inkscape:collect="always"
       xlink:href="#linearGradient4202"
       id="radialGradient4208"
       cx="78.234741"
       cy="558.61115"
       fx="78.234741"
       fy="558.61115"
       r="23.451361"
       gradientTransform="matrix(1.354515,-1.5457145,1.7611221,1.5432772,-1011.5178,-182.55217)"
       gradientUnits="userSpaceOnUse" />
    <linearGradient
       inkscape:collect="always"
       xlink:href="#linearGradient4210"
       id="linearGradient4216"
       x1="65"
       y1="582.36206"
       x2="90"
       y2="582.36206"
       gradientUnits="userSpaceOnUse" />
    <linearGradient
       inkscape:collect="always"
       xlink:href="#linearGradient4218"
       id="linearGradient4224"
       x1="100"
       y1="582.36206"
       x2="60"
       y2="582.36206"
       gradientUnits="userSpaceOnUse" />
  </defs>
  <sodipodi:namedview
     id="base"
     pagecolor="#ffffff"
     bordercolor="#666666"
     borderopacity="1.0"
     inkscape:pageopacity="0.0"
     inkscape:pageshadow="2"
     inkscape:zoom="1.4142136"
     inkscape:cx="249.63219"
     inkscape:cy="504.90357"
     inkscape:document-units="px"
     inkscape:current-layer="layer1"
     showgrid="true"
     units="px"
     showguides="true"
     inkscape:guide-bbox="true"
     inkscape:window-width="1440"
     inkscape:window-height="838"
     inkscape:window-x="-8"
     inkscape:window-y="-8"
     inkscape:window-maximized="1">
    <inkscape:grid
       type="xygrid"
       id="grid3336" />
    <sodipodi:guide
       position="160.00001,575.00002"
       orientation="1,0"
       id="guide3338" />
    <sodipodi:guide
       position="75.000002,450.00001"
       orientation="0,1"
       id="guide3340" />
    <sodipodi:guide
       position="80.000003,535.00002"
       orientation="1,0"
       id="guide3351" />
  </sodipodi:namedview>
  <metadata
     id="metadata7">
    <rdf:RDF>
      <cc:Work
         rdf:about="">
        <dc:format>image/svg+xml</dc:format>
        <dc:type
           rdf:resource="http://purl.org/dc/dcmitype/StillImage" />
        <dc:title></dc:title>
      </cc:Work>
    </rdf:RDF>
  </metadata>
  <g
     inkscape:label="Camada 1"
     inkscape:groupmode="layer"
     id="layer1"
     transform="translate(0,-442.36204)">
    <g
       id="g4232"
       transform="matrix(0.23638032,0,0,0.22720197,-2.2470721,335.82051)">
      <path
         sodipodi:nodetypes="sssss"
         inkscape:connector-curvature="0"
         id="path3355"
         d="m 111.25,510.2192 c 7.65881,11.48823 -7.90861,26.25002 -30,26.25002 -22.091389,0 -43.131193,-6.23831 -39.821429,-19.64287 C 45,502.36204 58.568204,497.71999 80,492.36204 c 20,-5 21.25,2.85714 31.25,17.85716 z"
         style="fill:url(#radialGradient4200);fill-opacity:1;fill-rule:evenodd;stroke:#000000;stroke-width:1px;stroke-linecap:butt;stroke-linejoin:miter;stroke-opacity:1" />
      <path
         sodipodi:open="true"
         d="m 104.37914,507.67729 a 10.5,10 0 0 1 -9.742873,10.67096 10.5,10 0 0 1 -11.206074,-9.27721 10.5,10 0 0 1 9.739266,-10.67395 10.5,10 0 0 1 11.209211,9.27378"
         sodipodi:end="6.2129586"
         sodipodi:start="6.2136022"
         sodipodi:ry="10"
         sodipodi:rx="10.5"
         sodipodi:cy="508.37256"
         sodipodi:cx="93.904549"
         sodipodi:type="arc"
         id="path4173"
         style="fill:#ffffff;fill-opacity:1;stroke:#000000;stroke-opacity:1" />
      <path
         sodipodi:open="true"
         style="fill:#ffffff;fill-opacity:1;stroke:#000000;stroke-opacity:1"
         id="path4177"
         sodipodi:type="arc"
         sodipodi:cx="72.658844"
         sodipodi:cy="509.10849"
         sodipodi:rx="10.5"
         sodipodi:ry="10"
         sodipodi:start="6.263498"
         sodipodi:end="6.2633143"
         d="m 83.156809,508.91163 a 10.5,10 0 0 1 -10.29078,10.19491 10.5,10 0 0 1 -10.705131,-9.80027 10.5,10 0 0 1 10.289796,-10.19581 10.5,10 0 0 1 10.706077,9.79933" />
      <path
         d="m 79.637539,508.05435 a 4.299334,3.6995561 0 0 1 -3.989303,3.9478 4.299334,3.6995561 0 0 1 -4.588458,-3.43214 4.299334,3.6995561 0 0 1 3.987822,-3.9489 4.299334,3.6995561 0 0 1 4.589745,3.43086"
         sodipodi:open="true"
         sodipodi:end="6.2129533"
         sodipodi:start="6.213599"
         sodipodi:ry="3.6995561"
         sodipodi:rx="4.299334"
         sodipodi:cy="508.31158"
         sodipodi:cx="75.34861"
         sodipodi:type="arc"
         id="path4181"
         style="fill:#000000;fill-opacity:1;stroke:none;stroke-opacity:1" />
      <path
         style="fill:#000000;fill-opacity:1;stroke:none;stroke-opacity:1"
         id="path4183"
         sodipodi:type="arc"
         sodipodi:cx="93.621727"
         sodipodi:cy="507.30328"
         sodipodi:rx="4.299334"
         sodipodi:ry="3.6995561"
         sodipodi:start="6.213599"
         sodipodi:end="6.2129533"
         sodipodi:open="true"
         d="m 97.910656,507.04605 a 4.299334,3.6995561 0 0 1 -3.989303,3.94779 4.299334,3.6995561 0 0 1 -4.588458,-3.43213 4.299334,3.6995561 0 0 1 3.987822,-3.9489 4.299334,3.6995561 0 0 1 4.589745,3.43086" />
      <path
         sodipodi:nodetypes="sccsss"
         inkscape:connector-curvature="0"
         id="path4185"
         d="M 98.799622,563.75119 C 95.080289,568.06441 110,582.36204 89.396424,580.06635 65,582.36204 65.820316,584.14937 56.452278,568.0369 50,557.36204 76.076056,536.36601 65.90736,536.9494 c -3.117373,0.17885 32.879037,-2.87708 26.994529,-0.15531 -11.651889,5.38938 16.026681,15.21081 5.897733,26.9571 z"
         style="fill:url(#radialGradient4208);fill-opacity:1;stroke:#000000;stroke-width:1.2578975;stroke-opacity:1" />
      <path
         sodipodi:nodetypes="sssss"
         inkscape:connector-curvature="0"
         id="path4189"
         d="M 78.378072,589.08518 C 75,597.36204 72.591593,589.73481 66.841174,589.73481 61.090752,589.73481 55,597.36204 53.835365,588.62809 53.134665,583.37333 55,572.36204 67.362461,572.71408 c 7.64255,0.21764 13.01882,11.46289 11.015611,16.3711 z"
         style="fill:url(#linearGradient4216);fill-opacity:1;stroke:#000000;stroke-width:1.33295453;stroke-opacity:1" />
      <path
         style="fill:url(#linearGradient4224);fill-opacity:1;stroke:#000000;stroke-width:1.28877234;stroke-opacity:1"
         d="m 104.1107,589.40971 c 0,5.2145 -5.019248,1.01161 -10.484229,1.01161 -5.464983,0 -13.626471,6.94072 -12.840235,-1.46121 0.619097,-6.61585 -2.144147,-16.74209 7.448779,-16.67741 C 100,572.36204 104.1107,584.19523 104.1107,589.40971 Z"
         id="path4192"
         inkscape:connector-curvature="0"
         sodipodi:nodetypes="sssss" />
    </g>
  </g>
</svg>
